# Blender 4.3.2
# www.blender.org
o Plane
v -0.762229 -0.286385 0.000000
v -0.644653 -0.284737 0.000000
v -0.754413 0.179676 -0.000000
v -0.662598 0.188486 0.000000
v -0.672849 0.270491 0.000000
v -0.753129 0.264976 -0.000000
v -0.474670 0.198737 0.000000
v -0.484921 0.280742 0.000000
v -0.380706 0.200445 0.000000
v -0.390957 0.282450 0.000000
v -0.462711 0.027893 0.000000
v -0.368747 0.029602 0.000000
v -0.461002 -0.026777 0.000000
v -0.367038 -0.025068 0.000000
v -0.754351 -0.040541 -0.000000
v -0.752624 0.013337 -0.000000
v -0.654130 -0.034813 0.000000
v -0.656092 0.016931 0.000000
v -0.569481 -0.281320 0.000000
v -0.443622 -0.291571 0.000000
v -0.572898 -0.238609 0.000000
v -0.443339 -0.240318 0.000000
v -0.606183 -0.283489 0.000000
v -0.609599 -0.240778 0.000000
v -0.576315 -0.137811 0.000000
v -0.612192 -0.139980 0.000000
v -0.576315 -0.103643 0.000000
v -0.612192 -0.105811 0.000000
v -0.446474 -0.136103 0.000000
v -0.446474 -0.101934 0.000000
v -0.407180 -0.136103 0.000000
v -0.407180 -0.101934 0.000000
v -0.365161 -0.101934 0.000000
v -0.404743 -0.239906 0.000000
v -0.405722 -0.290747 0.000000
v -0.365161 -0.136103 0.000000
v -0.362724 -0.239906 0.000000
v -0.363703 -0.290747 0.000000
v -0.326438 -0.101110 0.000000
v -0.328086 -0.117153 0.000000
v -0.324001 -0.239082 0.000000
v -0.324980 -0.289923 0.000000
v -0.312432 -0.113034 0.000000
v -0.308347 -0.164931 0.000000
v -0.276180 -0.108914 0.000000
v -0.272095 -0.160811 0.000000
v -0.232513 -0.104795 0.000000
v -0.228428 -0.156692 0.000000
v -0.265504 -0.301698 0.000000
v -0.221837 -0.297579 0.000000
v -0.188023 -0.099028 0.000000
v -0.183938 -0.150925 0.000000
v -0.133646 -0.092436 0.000000
v -0.129560 -0.144333 0.000000
v -0.066910 -0.089141 0.000000
v -0.062825 -0.141038 0.000000
v -0.024891 -0.087493 0.000000
v -0.020806 -0.139390 0.000000
v -0.182290 -0.209421 0.000000
v -0.127913 -0.202830 0.000000
v -0.179818 -0.253912 0.000000
v -0.129560 -0.247321 0.000000
v -0.061589 -0.199123 0.000000
v -0.062825 -0.243613 0.000000
v 0.039339 -0.281924 0.000000
v -0.019158 -0.195415 0.000000
v 0.040163 -0.178113 0.000000
v -0.019982 -0.239906 0.000000
v -0.056233 -0.306641 0.000000
v -0.015038 -0.306641 0.000000
v -0.053762 -0.345365 0.000000
v -0.011743 -0.343717 0.000000
v -0.127913 -0.311585 0.000000
v -0.124617 -0.348660 0.000000
v -0.171579 -0.313233 0.000000
v -0.168284 -0.350308 0.000000
v -0.132856 -0.281101 0.000000
v -0.176523 -0.282748 0.000000
v 0.290628 -0.278629 0.000000
v 0.291452 -0.174818 0.000000
v 0.386200 -0.274509 0.000000
v 0.387024 -0.170698 0.000000
v 0.294747 -0.113849 0.000000
v 0.390320 -0.109730 0.000000
v 0.125034 -0.278322 0.000000
v 0.125858 -0.174511 0.000000
v 0.288980 -0.019101 0.000000
v 0.384552 -0.014981 0.000000
v 0.199999 -0.113849 0.000000
v 0.194232 -0.019101 0.000000
v 0.037691 0.193465 0.000000
v 0.123386 0.197068 0.000000
v 0.038515 0.284094 0.000000
v 0.124210 0.287696 0.000000
v 0.368908 0.197892 0.000000
v 0.369732 0.288520 0.000000
v 0.443873 -0.273686 0.000000
v 0.444697 -0.169874 0.000000
v 0.540269 -0.272038 0.000000
v 0.541093 -0.168226 0.000000
v 0.709993 -0.270390 0.000000
v 0.710816 -0.166579 0.000000
v 0.445521 0.295628 0.000000
v 0.541917 0.297276 0.000000
vn -0.0000 -0.0000 1.0000
vt 1.000000 0.000000
vt 0.500000 1.000000
vt 0.273413 0.546826
vt 0.333333 0.666667
vt 0.000000 0.000000
s 1
f 4/1/1 6/2/1 3/2/1
f 15/3/1 2/1/1 17/1/1
f 4/1/1 8/1/1 5/1/1
f 7/1/1 10/1/1 8/1/1
f 9/1/1 11/1/1 12/1/1
f 12/1/1 13/1/1 14/1/1
f 3/2/1 18/1/1 4/1/1
f 16/4/1 17/1/1 18/1/1
f 18/1/1 13/1/1 11/1/1
f 19/1/1 22/5/1 21/1/1
f 21/1/1 23/1/1 19/1/1
f 21/1/1 26/1/1 24/1/1
f 25/1/1 28/1/1 26/1/1
f 27/1/1 29/1/1 30/1/1
f 29/1/1 32/1/1 30/1/1
f 31/1/1 22/1/1 34/1/1
f 22/5/1 35/5/1 34/5/1
f 33/1/1 40/1/1 39/1/1
f 37/5/1 42/5/1 41/5/1
f 36/1/1 41/1/1 40/1/1
f 40/1/1 44/1/1 43/1/1
f 43/1/1 46/1/1 45/1/1
f 45/1/1 48/1/1 47/1/1
f 46/1/1 50/1/1 48/1/1
f 51/1/1 54/1/1 53/1/1
f 54/1/1 55/1/1 53/1/1
f 56/1/1 57/1/1 55/1/1
f 52/1/1 60/1/1 54/1/1
f 59/1/1 62/1/1 60/1/1
f 60/1/1 64/1/1 63/1/1
f 56/1/1 66/1/1 58/1/1
f 63/1/1 68/1/1 66/1/1
f 68/1/1 69/1/1 70/1/1
f 70/1/1 71/1/1 72/1/1
f 69/1/1 74/1/1 71/1/1
f 73/1/1 76/1/1 74/1/1
f 75/1/1 77/1/1 78/1/1
f 86/1/1 79/1/1 80/1/1
f 80/1/1 81/1/1 82/1/1
f 82/1/1 83/1/1 80/1/1
f 67/1/1 85/1/1 86/1/1
f 83/1/1 88/1/1 87/1/1
f 87/1/1 89/1/1 83/1/1
f 86/1/1 91/1/1 67/1/1
f 92/1/1 93/1/1 91/1/1
f 94/1/1 95/1/1 96/1/1
f 98/1/1 99/1/1 100/1/1
f 100/1/1 101/1/1 102/1/1
f 100/1/1 103/1/1 98/1/1
f 4/1/1 5/1/1 6/2/1
f 15/3/1 1/5/1 2/1/1
f 4/1/1 7/1/1 8/1/1
f 7/1/1 9/1/1 10/1/1
f 9/1/1 7/1/1 11/1/1
f 12/1/1 11/1/1 13/1/1
f 3/2/1 16/4/1 18/1/1
f 16/4/1 15/3/1 17/1/1
f 18/1/1 17/1/1 13/1/1
f 19/1/1 20/5/1 22/5/1
f 21/1/1 24/1/1 23/1/1
f 21/1/1 25/1/1 26/1/1
f 25/1/1 27/1/1 28/1/1
f 27/1/1 25/1/1 29/1/1
f 29/1/1 31/1/1 32/1/1
f 31/1/1 29/1/1 22/1/1
f 22/5/1 20/5/1 35/5/1
f 33/1/1 36/1/1 40/1/1
f 37/5/1 38/5/1 42/5/1
f 36/1/1 37/1/1 41/1/1
f 40/1/1 41/1/1 44/1/1
f 43/1/1 44/1/1 46/1/1
f 45/1/1 46/1/1 48/1/1
f 46/1/1 49/1/1 50/1/1
f 51/1/1 52/1/1 54/1/1
f 54/1/1 56/1/1 55/1/1
f 56/1/1 58/1/1 57/1/1
f 52/1/1 59/1/1 60/1/1
f 59/1/1 61/1/1 62/1/1
f 60/1/1 62/1/1 64/1/1
f 56/1/1 63/1/1 66/1/1
f 63/1/1 64/1/1 68/1/1
f 68/1/1 64/1/1 69/1/1
f 70/1/1 69/1/1 71/1/1
f 69/1/1 73/1/1 74/1/1
f 73/1/1 75/1/1 76/1/1
f 75/1/1 73/1/1 77/1/1
f 86/1/1 85/1/1 79/1/1
f 80/1/1 79/1/1 81/1/1
f 82/1/1 84/1/1 83/1/1
f 67/1/1 65/1/1 85/1/1
f 83/1/1 84/1/1 88/1/1
f 87/1/1 90/1/1 89/1/1
f 86/1/1 92/1/1 91/1/1
f 92/1/1 94/1/1 93/1/1
f 94/1/1 92/1/1 95/1/1
f 98/1/1 97/1/1 99/1/1
f 100/1/1 99/1/1 101/1/1
f 100/1/1 104/1/1 103/1/1
